<svg width="27" height="31" viewBox="0 0 27 31" fill="none" xmlns="http://www.w3.org/2000/svg">
<path fill-rule="evenodd" clip-rule="evenodd" d="M2 10.15C1.46957 10.15 0.960859 10.3607 0.585786 10.7358C0.210714 11.1109 0 11.6196 0 12.15L0 19.27C0 19.8004 0.210714 20.3092 0.585786 20.6842C0.960859 21.0593 1.46957 21.27 2 21.27C2.53043 21.27 3.03914 21.0593 3.41421 20.6842C3.78929 20.3092 4 19.8004 4 19.27V12.19C4.00532 11.924 3.95752 11.6596 3.8594 11.4124C3.76127 11.1651 3.6148 10.9398 3.42855 10.7499C3.2423 10.5599 3.02002 10.409 2.77472 10.306C2.52942 10.203 2.26604 10.15 2 10.15ZM6 23.89H8V28.97C8 29.3678 8.15804 29.7494 8.43934 30.0307C8.72064 30.312 9.10218 30.47 9.5 30.47C9.89782 30.47 10.2794 30.312 10.5607 30.0307C10.842 29.7494 11 29.3678 11 28.97V23.89H16V28.97C16 29.3678 16.158 29.7494 16.4393 30.0307C16.7206 30.312 17.1022 30.47 17.5 30.47C17.8978 30.47 18.2794 30.312 18.5607 30.0307C18.842 29.7494 19 29.3678 19 28.97V23.89H21V10.15H6V23.89ZM17.93 3.29001C17.9343 3.27025 17.9343 3.24978 17.93 3.23001L18.88 1.23001C18.9174 1.16804 18.9412 1.0988 18.9499 1.02691C18.9585 0.955019 18.9516 0.88212 18.9299 0.813062C18.9081 0.744004 18.8719 0.680371 18.8237 0.626394C18.7754 0.572418 18.7162 0.529335 18.65 0.500013C18.5883 0.475924 18.5225 0.464325 18.4563 0.465891C18.3901 0.467457 18.3248 0.482156 18.2644 0.509136C18.2039 0.536115 18.1494 0.574837 18.104 0.623054C18.0586 0.67127 18.0233 0.728022 18 0.790013L17.07 2.79001C15.9727 2.26148 14.7678 1.99449 13.55 2.01001C12.2858 1.99184 11.0341 2.26201 9.89 2.80001L9 0.790013C8.97749 0.721701 8.94051 0.659048 8.89158 0.60633C8.84266 0.553613 8.78293 0.512073 8.71648 0.484544C8.65003 0.457016 8.57843 0.444147 8.50655 0.446817C8.43468 0.449486 8.36422 0.467631 8.3 0.500013C8.23617 0.527857 8.17871 0.568478 8.13118 0.619374C8.08364 0.670271 8.04704 0.730363 8.02361 0.795947C8.00019 0.861531 7.99045 0.931218 7.99499 1.00071C7.99952 1.0702 8.01825 1.13803 8.05 1.20001L9 3.20001V3.26001C8.18199 3.80898 7.49102 4.52675 6.97355 5.36504C6.45609 6.20334 6.12413 7.14272 6 8.12001H21C20.8574 7.14409 20.5102 6.20931 19.9812 5.37693C19.4521 4.54456 18.7531 3.83338 17.93 3.29001ZM11 6.59001C10.8022 6.59001 10.6089 6.53136 10.4444 6.42148C10.28 6.3116 10.1518 6.15542 10.0761 5.9727C10.0004 5.78997 9.98063 5.5889 10.0192 5.39492C10.0578 5.20094 10.153 5.02276 10.2929 4.88291C10.4327 4.74305 10.6109 4.64781 10.8049 4.60923C10.9989 4.57064 11.2 4.59045 11.3827 4.66613C11.5654 4.74182 11.7216 4.86999 11.8315 5.03444C11.9414 5.19889 12 5.39223 12 5.59001C12 5.85523 11.8946 6.10958 11.7071 6.29712C11.5196 6.48466 11.2652 6.59001 11 6.59001ZM16 6.59001C15.8022 6.59001 15.6089 6.53136 15.4444 6.42148C15.28 6.3116 15.1518 6.15542 15.0761 5.9727C15.0004 5.78997 14.9806 5.5889 15.0192 5.39492C15.0578 5.20094 15.153 5.02276 15.2929 4.88291C15.4327 4.74305 15.6109 4.64781 15.8049 4.60923C15.9989 4.57064 16.2 4.59045 16.3827 4.66613C16.5654 4.74182 16.7216 4.86999 16.8315 5.03444C16.9414 5.19889 17 5.39223 17 5.59001C17 5.85523 16.8946 6.10958 16.7071 6.29712C16.5196 6.48466 16.2652 6.59001 16 6.59001ZM25 10.15C24.4696 10.15 23.9609 10.3607 23.5858 10.7358C23.2107 11.1109 23 11.6196 23 12.15V19.27C23 19.8004 23.2107 20.3092 23.5858 20.6842C23.9609 21.0593 24.4696 21.27 25 21.27C25.5304 21.27 26.0391 21.0593 26.4142 20.6842C26.7893 20.3092 27 19.8004 27 19.27V12.19C27.0053 11.924 26.9575 11.6596 26.8594 11.4124C26.7613 11.1651 26.6148 10.9398 26.4285 10.7499C26.2423 10.5599 26.02 10.409 25.7747 10.306C25.5294 10.203 25.266 10.15 25 10.15Z" fill="white"/>
</svg>
