<svg width="27" height="33" viewBox="0 0 27 33" fill="none" xmlns="http://www.w3.org/2000/svg">
<path d="M21.9543 17.5057C21.9685 16.2776 22.2961 15.0734 22.9061 14.0074C23.5162 12.9413 24.3883 12.0488 25.44 11.4143C24.7652 10.4667 23.8811 9.68715 22.8565 9.13618C21.8319 8.58521 20.6941 8.27759 19.5314 8.23714C17.0172 7.98571 14.6286 9.71143 13.36 9.71143C12.0914 9.71143 10.1143 8.27143 8.00001 8.31714C6.63402 8.35125 5.30016 8.73869 4.12847 9.44171C2.95677 10.1447 1.98721 11.1393 1.3143 12.3286C-1.49713 17.22 0.617155 24.5 3.42858 28.4429C4.78858 30.3971 6.40001 32.58 8.52573 32.5C10.6514 32.42 11.3486 31.1857 13.8172 31.1857C16.2857 31.1857 16.9486 32.5 19.1086 32.5C21.2686 32.5 22.7086 30.5229 24.0457 28.5686C25.0318 27.1675 25.8023 25.6266 26.3314 23.9971C25.0447 23.4649 23.9434 22.5654 23.1649 21.4109C22.3864 20.2564 21.9654 18.8981 21.9543 17.5057ZM17.8857 5.60857C18.4895 4.91036 18.9489 4.09937 19.2372 3.2225C19.5256 2.34563 19.6373 1.42029 19.5657 0.5C17.748 0.689014 16.0676 1.55371 14.8572 2.92286C14.2542 3.5906 13.7917 4.37281 13.4972 5.22295C13.2027 6.07309 13.0822 6.97378 13.1429 7.87143C14.0536 7.88052 14.9543 7.68137 15.7763 7.28919C16.5983 6.89701 17.3198 6.32217 17.8857 5.60857Z" fill="white"/>
</svg>
